<svg width="48" height="48" viewBox="0 0 48 48" fill="none" xmlns="http://www.w3.org/2000/svg"><path d="M24 48C37.2548 48 48 37.2548 48 24C48 10.7452 37.2548 0 24 0C10.7452 0 0 10.7452 0 24C0 37.2548 10.7452 48 24 48Z" fill="#FFD188"/><path d="M42.9435 18.3855L32.004 7.038C30.927 5.9205 29.1495 5.889 28.032 6.9645L7.281 26.97C6.1635 28.047 6.132 29.8245 7.2075 30.942L18.147 42.2895C19.224 43.407 21.0015 43.4385 22.119 42.363L42.87 22.3575C43.9875 21.2805 44.0205 19.503 42.9435 18.3855Z" fill="white"/><path d="M11.8035 35.784L9.255 33.1095L34.233 9.3375L36.8505 12L11.8035 35.784Z" fill="#F7AC1C"/><path d="M29.0978 35.6288L14.3105 20.1983L11.7817 22.6216L26.569 38.0522L29.0978 35.6288Z" fill="#F7AC1C"/><path d="M21.6285 23.802C22.7775 22.8555 30.255 22.482 30.255 22.482L28.6965 25.1565L30.1965 28.0665C30.1965 28.0665 22.68 30.3705 19.4955 28.956C20.274 32.3535 17.16 38.8695 17.16 38.8695L14.7105 36.9855L11.115 38.1555C11.115 38.1555 12.8805 31.008 14.028 30.0615" fill="#F7AC1C"/><path d="M7.32299 33.066C8.53949 34.542 10.4205 35.415 13.1205 33.4185C16.0275 31.269 19.5405 28.956 19.5405 28.956L16.3425 25.074C16.3425 25.074 14.613 27.2085 11.865 29.2215C7.85699 32.1555 4.83899 30.0525 4.83899 30.0525L7.32299 33.066Z" fill="#421416"/><path d="M19.3035 28.6665L15.9705 24.6195C15.9705 24.6195 9.567 21.5415 4.9815 25.3185C2.8485 27.075 3.702 28.668 3.702 28.668L7.44 33.207C7.44 33.207 5.9325 31.0035 7.626 29.199C10.656 25.9695 19.3035 28.6665 19.3035 28.6665Z" fill="#F7AC1C"/><path d="M25.8885 17.7735C27.105 19.2495 27.6 21.264 25.125 23.532C22.458 25.974 19.515 28.9785 19.515 28.9785L16.317 25.0965C16.317 25.0965 18.744 23.808 21.2445 21.4965C24.8925 18.1245 23.406 14.76 23.406 14.76L25.8885 17.7735Z" fill="#421416"/><path d="M19.2765 28.689L15.9435 24.642C15.9435 24.642 14.148 17.7675 18.7335 13.9905C20.8665 12.234 22.266 13.3755 22.266 13.3755L26.004 17.9145C26.004 17.9145 24.1305 16.014 22.035 17.3295C18.2835 19.6845 19.2765 28.689 19.2765 28.689Z" fill="#F7AC1C"/><path d="M36.156 20.4555C35.817 20.6445 35.5635 21.0435 35.556 21.6795C34.0665 21.387 33.4545 23.169 34.53 23.8545C35.6055 24.5385 37.6575 24.0495 37.6575 24.0495C37.6575 24.0495 38.1315 23.2305 38.0355 22.0755C37.5465 22.053 37.047 21.9585 36.6675 21.717C36.198 21.417 36.0495 20.9085 36.156 20.4555Z" fill="#421416"/><path d="M40.014 19.1265C39.6105 17.8335 37.7175 17.7825 37.6935 19.542C36.8535 19.377 36.294 19.8705 36.156 20.4555C36.7545 20.121 37.6185 20.439 37.8765 21.264C37.965 21.5475 38.013 21.819 38.034 22.074C38.9325 22.116 39.7935 21.9105 39.7935 21.9105C39.7935 21.9105 40.5015 20.6895 40.014 19.1265Z" fill="#D53D47"/><path d="M36.156 20.4555C36.0495 20.9085 36.198 21.417 36.6675 21.7155C37.0455 21.957 37.5465 22.0515 38.0355 22.074C38.0145 21.819 37.9665 21.5475 37.878 21.264C37.6185 20.4375 36.753 20.1195 36.156 20.4555Z" fill="#921C23"/><path d="M36.261 34.992L36.8955 33.834L37.53 34.992L38.6925 35.6265L37.53 36.261L36.8955 37.419L36.261 36.261L35.0985 35.6265L36.261 34.992Z" fill="#421416"/><path d="M10.7595 11.8965L11.8215 9.95997L12.882 11.8965L14.823 12.9555L12.882 14.016L11.8215 15.9525L10.7595 14.016L8.81999 12.9555L10.7595 11.8965Z" fill="white"/></svg>