<?xml version="1.0" encoding="UTF-8"?><svg width="80px" height="20px" viewBox="0 0 80 20" version="1.1" xmlns="http://www.w3.org/2000/svg" xmlns:xlink="http://www.w3.org/1999/xlink"><!--Generator: Sketch 63.1 (92452) - https://sketch.com--><title>Page / Provider Logo / Uber</title><desc>Created with Sketch.</desc><g stroke="none" stroke-width="1" fill="none" fill-rule="evenodd"><g transform="translate(3.000000, 4.000000)" fill-rule="nonzero"><path d="M55.4343746,7.42911134 C55.4343746,5.9425812 54.2577392,4.77176175 52.7764393,4.77176175 C51.8267561,4.75609644 50.9425042,5.25919781 50.4631319,6.08793427 C49.9837597,6.91667073 49.9837597,7.94225982 50.4631319,8.77099628 C50.9425042,9.59973274 51.8267561,10.1028341 52.7764393,10.0871688 C54.2577392,10.0871688 55.4343746,8.91918084 55.4343746,7.42911134 M57.605547,3.08065675 L57.605547,11.7782738 L55.394453,11.7782738 L55.394453,10.9932443 C54.60601,11.6499165 53.6145765,12.006142 52.5929402,11.9999198 C49.9749265,11.9999198 47.9256198,9.96612278 47.9256198,7.42911134 C47.9256198,4.8920999 49.9749265,2.8590107 52.5929402,2.8590107 C53.6145765,2.8527886 54.60601,3.20901408 55.394453,3.86568623 L55.394453,3.08065675 L57.605547,3.08065675 Z M64.9595181,9.80543595 L63.2954195,9.80543595 C62.7883457,9.80543595 62.4633702,9.58387217 62.4633702,9.12092421 L62.4633702,5.0534946 L64.9595181,5.0534946 L64.9595181,3.08065675 L62.4633702,3.08065675 L62.4633702,0.603106514 L60.2312649,0.603106514 L60.2312649,3.08065675 L58.5468553,3.08065675 L58.5468553,5.0534946 L60.2312649,5.0534946 L60.2312649,9.68438992 C60.2312649,10.8523779 61.0633142,11.7782738 62.5649251,11.7782738 L64.9595181,11.7782738 L64.9595181,9.80543595 Z M70.0022412,11.9998376 C72.559322,11.9998376 74,10.7915009 74,9.12092421 C74,7.93311585 73.1476397,7.04686073 71.3616753,6.66390225 L69.4748564,6.28165165 C68.3787645,6.08061614 68.0341785,5.87958064 68.0341785,5.47680176 C68.0341785,4.95297685 68.5615632,4.62735596 69.5357893,4.62735596 C70.5912593,4.62735596 71.3616753,4.91050456 71.585096,5.87604128 L73.7968903,5.87604128 C73.6750245,4.06318238 72.3562124,2.85555361 69.6779661,2.85555361 C67.366718,2.85555361 65.7404398,3.8019778 65.7404398,5.63394923 C65.7404398,6.90245495 66.6341224,7.72783311 68.5615632,8.13061199 L70.6718028,8.61408822 C71.5038521,8.77477505 71.7272727,8.99633883 71.7272727,9.33894863 C71.7272727,9.88259394 71.0969323,10.2244959 70.0834851,10.2244959 C68.8052949,10.2244959 68.0748004,9.94134728 67.7904468,8.97581056 L65.5583415,8.97581056 C65.8826166,10.7879616 67.2427511,11.9962982 70.0022412,11.9962982 M39,0 L47.3401037,0 L47.3401037,2.0138944 L41.2524163,2.0138944 L41.2524163,4.8920999 L47.1783163,4.8920999 L47.1783163,6.84936459 L41.2524163,6.84936459 L41.2524163,9.76862663 L47.3401037,9.76862663 L47.3401037,11.7818132 L39,11.7818132 L39,0 Z" fill="#06C167"/><path d="M35,4.71934978 L35,3.13535148 L34.4034572,3.13535148 C33.4480015,3.13535148 32.7492143,3.57322198 32.3226086,4.26444704 L32.3226086,3.19993206 L30.616891,3.19993206 L30.616891,11.7941164 L32.3395318,11.7941164 L32.3395318,6.91012163 C32.3395318,5.57876822 33.1581916,4.71934978 34.2842896,4.71934978 L35,4.71934978 Z M22.6171529,6.70644443 C22.924591,5.39212325 23.9992143,4.51567258 25.2783262,4.51567258 C26.5574381,4.51567258 27.6320614,5.39212325 27.9218712,6.70644443 L22.6171529,6.70644443 Z M25.3114675,3.03528707 C24.1287722,3.02543744 22.991232,3.49179125 22.1520031,4.33056289 C21.3127741,5.16933452 20.8414914,6.31092695 20.8430335,7.50128228 C20.8430335,10.0625053 22.855488,11.9836001 25.4651866,11.9836001 C27.0517366,11.9836001 28.3477718,11.2930847 29.2172012,10.1469569 L27.9719357,9.23715139 C27.3246233,10.0965698 26.4714119,10.5010855 25.4651866,10.5010855 C24.0380174,10.5109379 22.8156371,9.47479007 22.5826013,8.05766879 L29.6607301,8.05766879 L29.6607301,7.50128228 C29.6607301,4.94005922 27.8189218,3.03528707 25.3114675,3.03528707 M15.4678056,10.4996662 C14.6762572,10.5076096 13.9142626,10.1974289 13.3507657,9.63789491 C12.7872687,9.07836095 12.4688306,8.31570744 12.4660529,7.5190242 C12.4660529,5.85057438 13.8135627,4.53838223 15.4678056,4.53838223 C17.1045984,4.53838223 18.4314812,5.8738143 18.4314812,7.52115323 C18.4314812,9.16849217 17.1045984,10.5039242 15.4678056,10.5039242 M10.7772584,11.8012132 L12.4829761,11.8012132 L12.4829761,10.7225046 C13.3080572,11.5453657 14.4240149,12.0048353 15.5855629,11.9999616 C18.1444919,11.9999616 20.1569425,9.99437639 20.1569425,7.51760485 C20.1569425,5.02380107 18.1444919,3.01825483 15.5855629,3.01825483 C14.4286858,3.0128245 13.3175795,3.47270057 12.4991941,4.29567282 L12.4991941,0.000709676659 L10.7758482,0.000709676659 L10.7772584,11.8012132 Z M4.72439359,10.4159243 C6.37934161,10.4159243 7.65774841,9.15199019 7.65774841,7.28128252 L7.65774841,0.000709676659 L9.4494923,0.000709676659 L9.4494923,11.7969551 L7.67537674,11.7969551 L7.67537674,10.699795 C6.8736401,11.5258586 5.76517044,11.9977936 4.51990491,11.9977936 C1.96168104,11.9977936 0,10.1611504 0,7.38063725 L0,0 L1.78821823,0 L1.78821823,7.28057284 C1.78821823,9.185345 3.05040696,10.4152146 4.72157305,10.4152146" fill="#142328"/></g></g></svg>