<svg width="48" height="48" viewBox="0 0 48 48" fill="none" xmlns="http://www.w3.org/2000/svg"><path d="M23.9996 47.8501C37.1716 47.8501 47.8496 37.1721 47.8496 24.0001C47.8496 10.8281 37.1716 0.150085 23.9996 0.150085C10.8276 0.150085 0.149597 10.8281 0.149597 24.0001C0.149597 37.1721 10.8276 47.8501 23.9996 47.8501Z" fill="#EDC3B6"/><path d="M37.914 22.2137L38.5485 21.0542L39.1845 22.2137L40.3455 22.8482L39.1845 23.4812L38.5485 24.6407L37.914 23.4812L36.7515 22.8482L37.914 22.2137Z" fill="#121C43"/><path d="M31.3471 12.4185L32.1871 11.5785L34.6516 30.2805L32.0821 34.0035H16.6111L17.1346 11.526L17.6596 12.4185L18.6031 11.5785L19.2331 12.4185L20.1766 11.421L20.8591 12.3135L21.8026 11.316L22.6936 12.3135L23.5336 11.5785L24.2146 12.471L25.1596 11.6835L26.1031 12.5235L26.9416 11.526L27.9916 12.471L28.6201 11.5785L29.5636 12.732L30.4036 11.526L31.3471 12.4185Z" fill="#D69529"/><path d="M35.5432 34.0036L34.7662 29.4031L35.5432 11.5261L34.7047 12.4711L33.9172 11.3686L33.1837 12.4711L32.1877 11.5786L32.7877 29.4031L32.0827 34.0036H35.5432Z" fill="#ACD6E6"/><path d="M16.147 31.6547H31.024L29.3695 35.6612H17.8015L16.147 31.6547Z" fill="#094A5C"/><path d="M30.9949 31.4563L29.3703 29.3278H17.8023L16.1793 31.4563H15.4203V32.0218H31.7943V31.4563H30.9949Z" fill="#fff"/><path d="M19.2287 26.9282H9.95717C9.90467 26.9282 9.86267 26.9702 9.86267 27.0227V27.7232C9.86267 27.7757 9.90467 27.8177 9.95717 27.8177H10.6022L11.4092 35.7076L17.7587 35.7136L18.5822 27.8177H19.2272C19.2797 27.8177 19.3217 27.7757 19.3217 27.7232V27.0227C19.3232 26.9702 19.2812 26.9282 19.2287 26.9282Z" fill="#C6512D"/><path d="M19.1042 18.1034H10.0817C9.96017 18.1034 9.86267 18.2009 9.86267 18.3224V18.7739C9.86267 18.8954 9.96017 18.9929 10.0817 18.9929H10.6022L11.4092 26.8829L17.7587 26.8889L18.5822 18.9929H19.1027C19.2242 18.9929 19.3217 18.8954 19.3217 18.7739V18.3224C19.3232 18.2009 19.2257 18.1034 19.1042 18.1034Z" fill="#fff"/><path d="M34.4479 16.2386L35.3884 14.5211L36.3289 16.2386L38.0494 17.1791L36.3289 18.1181L35.3884 19.8356L34.4479 18.1181L32.7259 17.1791L34.4479 16.2386Z" fill="#fff"/><path d="M18.2429 31.2569C15.5354 30.3389 11.8769 33.0374 11.0684 32.5499L11.3954 35.7899L17.7539 35.8094L18.2429 31.2569Z" fill="#F7AC1C"/><path d="M12.0958 28.0547C12.0958 28.0547 13.9573 28.6967 13.2748 30.1262C11.6083 30.0122 12.0958 28.0547 12.0958 28.0547Z" fill="#121C43"/><path d="M15.3822 30.1833C15.3822 30.1833 14.0337 28.7478 13.0092 29.9553C13.7967 31.4283 15.3822 30.1833 15.3822 30.1833Z" fill="#121C43"/><path d="M16.1884 34.4547C16.543 34.4547 16.8304 34.1673 16.8304 33.8127C16.8304 33.4581 16.543 33.1707 16.1884 33.1707C15.8338 33.1707 15.5464 33.4581 15.5464 33.8127C15.5464 34.1673 15.8338 34.4547 16.1884 34.4547Z" fill="#921C23"/><path d="M27.6435 16.6093C27.6435 16.6093 28.3365 21.0073 27.4215 25.1473C23.9415 25.4623 21.375 25.0003 21.375 25.0003C21.375 25.0003 22.4745 21.4093 21.648 16.7488C25.5885 16.6273 27.6435 16.6093 27.6435 16.6093Z" fill="#ACD6E6"/><path d="M25.9186 15.9493L25.8901 17.0263L23.0716 17.0803L22.9861 15.9868L25.9186 15.9493Z" fill="#F7AC1C"/></svg>