<svg width="320" height="320" viewBox="0 0 320 320" fill="none" xmlns="http://www.w3.org/2000/svg"><path d="M160 319C247.813 319 319 247.813 319 160C319 72.1867 247.813 1 160 1C72.1867 1 1 72.1867 1 160C1 247.813 72.1867 319 160 319Z" fill="#CEC7E1"/><path d="M215.35 87L219.59 79.27L223.82 87L231.56 91.22L223.82 95.45L219.59 103.18L215.35 95.45L207.61 91.22L215.35 87Z" fill="#1A1446"/><path d="M153.07 43.37L153.18 90.83C153.18 92.37 154.13 93.74 155.56 94.3C169.8 99.84 179.9 113.66 179.94 129.86L180.23 257.14C180.24 262.82 175.64 267.43 169.96 267.43H114.01C108.35 267.43 103.76 262.85 103.74 257.19L103.45 130.05C103.41 113.85 113.45 99.99 127.66 94.38C129.09 93.82 130.03 92.44 130.02 90.9L129.91 43.44" fill="#9081BA"/><path d="M141.55 47.4801C148.023 47.4648 153.266 45.6078 153.26 43.3324C153.255 41.057 148.003 39.2248 141.531 39.2401C135.058 39.2554 129.815 41.1124 129.82 43.3878C129.826 45.6632 135.077 47.4954 141.55 47.4801Z" fill="#1A1446"/><path d="M161.39 222.19L161.36 208.13C148.24 211.77 118.19 212.48 103.74 207.48L103.77 222.08C117.12 228.08 155.36 224.97 161.39 222.19Z" fill="#1A1446"/><path d="M161.19 137.4C155.16 140.18 116.42 142.29 103.57 137.28L103.74 207.47C118.19 212.48 148.23 211.77 161.36 208.12L161.19 137.4Z" fill="#544D9F"/><path d="M204.439 208.246L200.099 208.254L200.202 263.954L204.542 263.946L204.439 208.246Z" fill="white"/><path d="M124.87 234.07C129.94 234.07 134.05 229.96 134.05 224.89C134.05 219.82 129.94 215.71 124.87 215.71C119.8 215.71 115.69 219.82 115.69 224.89C115.69 229.96 119.8 234.07 124.87 234.07Z" fill="#544D9F"/><path opacity="0.44" d="M179.95 129.86C179.91 112.77 168.67 98.34 153.19 93.47L153.07 43.38L141.62 43.41L140.65 94.4C140.65 94.4 146.08 101.84 149.14 122.66C151.66 139.77 154.02 252.28 140.82 267.44H170.45C175.86 267.44 180.24 263.05 180.23 257.64L179.95 129.86Z" fill="#9081BA"/><path d="M173.37 146.17C173.37 146.17 164.09 167.93 166.66 182.16C170.48 203.29 201.36 213.4 201.36 213.4C201.36 213.4 232.19 202.38 235.91 181.24C238.42 167 229.03 145.28 229.03 145.28" fill="white"/><path d="M228.4 172.13C228.4 172.13 204.2 176.41 171.99 171.29C171.99 171.29 170.95 202.02 203.26 203.13C203.25 203.13 227.62 197.67 228.4 172.13Z" fill="#1A1446"/><path d="M201.366 148.33C217.007 148.293 229.684 147.234 229.681 145.963C229.678 144.693 216.996 143.693 201.355 143.73C185.714 143.767 173.038 144.827 173.041 146.097C173.044 147.368 185.725 148.367 201.366 148.33Z" fill="#544D9F"/><path d="M226.64 267.42C226.64 267.42 216.22 256.89 202.09 257C183.48 259.81 177.52 267.42 177.52 267.42H226.64Z" fill="white"/><path d="M51.39 168.22L58.47 155.31L65.54 168.22L78.48 175.28L65.54 182.34L58.47 195.26L51.39 182.34L38.45 175.28L51.39 168.22Z" fill="white"/></svg>