<?xml version="1.0" encoding="utf-8"?><!--Generator: Adobe Illustrator 24.0.1, SVG Export Plug-In . SVG Version: 6.00 Build 0)--><svg version="1.1" xmlns="http://www.w3.org/2000/svg" xmlns:xlink="http://www.w3.org/1999/xlink" x="0px" y="0px" viewBox="0 0 85.4 20" style="enable-background:new 0 0 85.4 20" xml:space="preserve"><title>Page / Provider Logo / postmates</title><desc>Created with Sketch.</desc><path d="M41.9,12.6c0.4-0.1,0.8-0.2,1.3-0.2c0.1,0.5,0.4,1.1,1.4,1.1c0.2,0,1.3-0.1,1.3-0.8c0-1.5-3.8,0-3.8-2.6
	c0-1.1,1.1-1.9,2.4-1.9S46.8,8.6,47,10c-0.4,0.1-0.8,0.2-1.3,0.2c-0.1-0.7-0.5-1.1-1.3-1.1c-0.6,0-1.1,0.3-1.1,0.7
	c0,0.5,0.4,0.6,1.2,0.7c1.4,0.1,2.6,0.4,2.6,1.9c0,1.3-1.2,2-2.6,2C42.9,14.5,42.1,13.7,41.9,12.6"/><path d="M47.6,9.2V8.2h1.1V6.4H50v1.8h1.3v1.1H50v3.5c0,0.5,0.1,0.6,0.5,0.6c0.2,0,0.6,0,0.6,0v1.1c0,0-0.5,0-0.9,0
	c-1.2,0-1.6-0.6-1.6-1.8V9.2H47.6z"/><path d="M55.9,10.9c0-0.9-0.2-1.8-1.2-1.8s-1.2,0.8-1.2,1.8v3.5h-1.4V8.2h1.2l0.1,0.6C53.7,8.5,54.4,8,55.2,8s1.4,0.3,1.7,0.9
	C57.2,8.4,58,8,58.7,8c1.7,0,2.2,1.1,2.2,2.8v3.5h-1.3v-3.5c0-0.9-0.2-1.8-1.2-1.8c-0.9,0-1.2,0.8-1.2,1.8v3.5H56L55.9,10.9z"/><g><path d="M32.4,5.8h-3.6v8.6h1.4V11h2.2c1.6,0,2.5-1.2,2.5-2.6S33.9,5.8,32.4,5.8z M32.3,9.9h-2.2v-3h2.2c0.6,0,1.3,0.7,1.3,1.5
		S33,9.9,32.3,9.9z"/><path d="M67.3,12.8v-2.2c0-1.7-0.9-2.5-2.6-2.5c-1.3,0-2.4,0.6-2.5,2c0.4,0.1,0.8,0.2,1.3,0.2l0,0c0-0.7,0.5-1.2,1.3-1.2
		c1.2,0,1.4,0.6,1.4,1.2v0.4h-1.6c-1.7,0-2.5,0.8-2.5,1.9c0,1.2,0.8,2,2.3,2c0.7,0,1.5-0.3,1.9-0.9c0.1,0.5,0.5,0.9,1.1,0.8
		c0.3,0,0.5,0,0.7-0.1v-1.1c-0.1,0-0.2,0-0.3,0C67.3,13.3,67.3,13.1,67.3,12.8z M64.2,13.5c-0.8,0-1.1-0.4-1.1-0.8
		c0-0.3,0.2-0.8,1.3-0.8h1.5v0.3l0,0C65.9,12.7,65.3,13.5,64.2,13.5z"/><path d="M38.2,8.1c-1.8,0-3.3,1.5-3.3,3.3s1.5,3.3,3.3,3.3c1.8,0,3.3-1.5,3.3-3.3C41.3,9.6,40,8.1,38.2,8.1z M40.2,11.3
		c0,1.2-0.9,2-2,2c-1.2,0-2-0.9-2-2s0.9-2,2-2C39.2,9.3,40.2,10.2,40.2,11.3L40.2,11.3z"/><path d="M76.1,12.3c-0.2,0.7-0.8,1.2-1.6,1.2c-0.9,0-1.5-0.8-1.6-1.7h4.3c0-0.2,0-0.4,0-0.6c0-1.9-1.1-3.1-2.8-3.1
		c-1.7,0-2.8,1.3-2.8,3.3c0,1.9,1.3,3.3,3,3.3s2.5-1.1,2.8-1.9C77,12.5,76.5,12.4,76.1,12.3z M74.4,9.1c0.9,0,1.4,0.6,1.4,1.5H73
		C73.1,9.9,73.6,9.1,74.4,9.1z"/></g><path d="M77.9,12.6c0.4-0.1,0.8-0.2,1.3-0.2c0.1,0.5,0.4,1.1,1.4,1.1c0.2,0,1.3-0.1,1.3-0.8c0-1.5-3.8,0-3.8-2.6
	c0-1.1,1.1-1.9,2.4-1.9s2.4,0.5,2.6,1.9c-0.4,0.1-0.8,0.2-1.3,0.2c-0.1-0.7-0.5-1.1-1.3-1.1c-0.6,0-1.1,0.3-1.1,0.7
	c0,0.5,0.4,0.6,1.2,0.7c1.4,0.1,2.6,0.4,2.6,1.9c0,1.3-1.2,2-2.6,2C79,14.5,78,13.7,77.9,12.6"/><path d="M67.7,9.2V8.2h1.1V6.4h1.4v1.8h1.3v1.1h-1.3v3.5c0,0.5,0.1,0.6,0.5,0.6c0.2,0,0.6,0,0.6,0v1.1c0,0-0.5,0-0.9,0
	c-1.2,0-1.6-0.6-1.6-1.8V9.2H67.7z"/><path d="M22.9,8.6c-0.9-1.3-2.6-1.7-4-0.9c-0.2,0.2-0.5,0.3-0.6,0.6l-1-0.8c0.3-0.1,0.8-0.3,0.8-0.5c0-0.1-0.3-0.1-0.7-0.2l1.9-1.8
	c0,0,0,0,0,0l-0.5-0.9c0,0,0,0-0.1,0c0,0,0,0,0,0l-2,1.8c-0.6,0-1.7,0.1-2-0.1c-0.5-0.3-0.5-0.8-0.7-0.9c-0.2-0.2-0.4-0.2-0.4-0.3
	c0,0,0,0,0,0c0,0,0,0,0,0c0.1,0,0.6-0.2,0.7-0.5c0.1-0.4-0.1-0.9-0.2-0.9c0,0,0,0,0,0l0.6-0.5c0,0,0,0,0,0c0,0,0,0,0,0L14,2.6
	c0,0,0,0,0,0c0-0.1-0.4-0.4-1-0.2c-0.8,0.3-0.6,1-0.6,1c0.1,0.7,0.3,0.8,0.7,1.1c0,0,0,0,0,0c-0.3,0.2-2.8,2.3-5.2,3.1
	c0,0,0,0,0,0.1c0,0,0,0,0,0c0.7,0.3,2.7,0.1,3.3-0.2c0,0,0,0,0,0c0,0,0,0,0,0c-0.1,0.3-0.4,1.7,0.1,2.2l0,0l-0.8,0.5
	c-0.1,0.1-0.1,0.2,0,0.3c0,0.1,0.1,0.1,0.2,0.1l0.4,0c0.3,0,0.5-0.1,0.7-0.3l0.1-0.1l1.1,0.8l-0.1,1.2c-1.6-0.1-2.9,1.1-3,2.7
	s1.1,2.9,2.7,3c1.6,0.1,2.9-1.1,3-2.7c0-0.5-0.1-1.1-0.3-1.5l0.3-0.2c0.3,0.3,0.7,0.2,1-0.1c0.2-0.2,0.2-0.4,0.1-0.6l1.2-0.3
	c0.1,0,0.2-0.1,0.1-0.2c0,0,0,0,0,0v0c0-0.1-0.1-0.2-0.2-0.1h-1c0,0,0,0,0,0l-0.3-0.7l0.6-3.5l1,0.7c-0.9,1.3-0.5,3.1,0.9,4
	c1.3,0.9,3.1,0.5,4-0.9C23.5,10.7,23.5,9.5,22.9,8.6L22.9,8.6z M15,6.5l1.4,0l0.2,0.3c-0.3,0-0.6,0-1,0.1C15.3,6.9,15,6.6,15,6.5
	C15,6.5,15,6.5,15,6.5L15,6.5z M12.9,8.5c0.1-0.2,0.8-1.3,0.9-1.7c0,0,0,0,0,0c0,0,0,0,0,0c0.4,0.5,1.4,0.8,1.4,0.8h0l1.2-0.4
	l0.3,0.2l-1.2,1.1c-0.1-0.1-0.3-0.2-0.5-0.2C14.3,8.3,13.1,8.5,12.9,8.5C12.9,8.5,12.9,8.5,12.9,8.5C12.9,8.5,12.9,8.5,12.9,8.5
	L12.9,8.5z M16,12.2c-0.1,0-0.2,0-0.2,0.1l-0.8-0.7c0,0,0,0,0,0l0.4-0.9c0,0,0,0,0,0c0,0,0,0,0,0l0.7,1.1L16,12.2z M14.2,11.3
	l-0.6-0.4l1.1-1L14.2,11.3z M14.2,9.8l-0.9,0.8L12.4,10C13,10,13.6,9.9,14.2,9.8L14.2,9.8z M13.5,11.2l0.6,0.4L14,11.9
	c-0.1,0.1,0,0.3,0.2,0.3c0,0,0,0,0,0l1.2,0.5l0,0c-0.1,0.1-0.1,0.3,0,0.4l-0.3,0.2c-0.4-0.6-1.1-1-1.8-1.1L13.5,11.2z M13.3,12.8
	c0.5,0.1,1,0.4,1.4,0.9l-1.6,1L13.3,12.8z M14,16.9c-1.1,0.7-2.5,0.4-3.1-0.7c-0.7-1.1-0.4-2.5,0.7-3.1c0.4-0.3,0.9-0.4,1.3-0.4
	L12.6,15c0,0.1,0.1,0.2,0.2,0.2c0,0,0.1,0,0.1,0l1.9-1.2C15.4,15,15,16.3,14,16.9L14,16.9z M15.7,9.5c0-0.2,0-0.3-0.1-0.5l1-1
	l-0.5,2.7L15.7,9.5z M21.7,12c-1.1,0.7-2.5,0.4-3.1-0.7c-0.5-0.7-0.5-1.7,0-2.4l1.8,1.3c0.1,0,0.2,0,0.2,0c0,0,0,0,0.1,0
	c0.1-0.1,0-0.2,0-0.3l-1.8-1.3c0.8-0.9,2.3-1,3.2-0.2c0.9,0.8,1,2.3,0.2,3.2C22,11.8,21.9,11.9,21.7,12L21.7,12z"/><path d="M15.9,5.4l0.7,0c0,0,0.1,0,0.1,0l1.6-1.5c0,0,0,0,0,0c0,0,0,0,0,0l-0.6,0c0,0-0.1,0-0.1,0L15.9,5.4
	C15.9,5.4,15.9,5.4,15.9,5.4C15.9,5.4,15.9,5.4,15.9,5.4L15.9,5.4z"/><polygon points="7.2,15.1 6.2,15.7 5.2,14.9 5.5,16.2 4.5,16.9 5.7,17 6.1,18.2 6.5,17.1 7.8,17.2 6.8,16.3 "/><polygon points="8.4,10.6 7.4,11.3 6.4,10.4 6.7,11.7 5.7,12.4 6.9,12.5 7.3,13.7 7.8,12.6 9,12.7 8,11.8 "/><polygon points="3.5,13 3.9,11.8 2.9,12.5 1.9,11.7 2.2,12.9 1.2,13.6 2.4,13.7 2.8,15 3.3,13.8 4.5,13.9 "/></svg>